<?xml version="1.0" encoding="UTF-8" standalone="no"?>
<!DOCTYPE svg PUBLIC "-//W3C//DTD SVG 1.1//EN" "http://www.w3.org/Graphics/SVG/1.1/DTD/svg11.dtd">
<svg version="1.1" xmlns="http://www.w3.org/2000/svg" xmlns:xlink="http://www.w3.org/1999/xlink" preserveAspectRatio="xMidYMid meet" viewBox="0 0 2600 320" width="2600" height="320"><defs><path d="M557.88 6.05C716.7 26.52 1038.76 197.93 1424.02 197.61C1809.28 197.3 2321.26 -146.22 2601.24 110.84C2592.7 125.28 2285.27 173.31 1678.95 254.95C1597.67 249.13 1191.27 220.04 459.75 167.68C409.64 167.68 381.81 167.68 376.24 167.68C102.24 124.98 0.69 100.85 71.6 95.28C177.97 86.93 355.68 -25.06 557.88 6.05Z" id="a1v1Lsr6zT"></path><linearGradient id="gradientc4mSoeChOw" gradientUnits="userSpaceOnUse" x1="-279.3" y1="126.39" x2="2895.59" y2="129.13"><stop style="stop-color: #f9ca87;stop-opacity: 1" offset="0%"></stop><stop style="stop-color: #f06e7c;stop-opacity: 1" offset="100%"></stop></linearGradient><path d="M506.31 32.25C705.24 52.71 1038.76 197.93 1424.02 197.61C1809.28 197.3 2227.4 -104.91 2531.66 136.22C2523.11 150.66 2517.11 179.04 2513.65 221.35C2445.24 226.02 2103.23 249.37 1487.59 291.38L268.39 204.11C218.29 204.11 190.45 204.11 184.89 204.11C11.71 143.68 -39.42 110.68 31.49 105.11C137.86 96.75 315.56 18.33 506.31 32.25Z" id="bxiJg4U6H"></path><linearGradient id="gradientbzxKCQM9q" gradientUnits="userSpaceOnUse" x1="0.59" y1="160.74" x2="2531.66" y2="160.71"><stop style="stop-color: #50fe0e;stop-opacity: 1" offset="0%"></stop><stop style="stop-color: #12eecd;stop-opacity: 1" offset="100%"></stop></linearGradient><path d="M480.93 65.81C783.83 89.55 999.96 204.16 1407.65 204.16C1801.42 210.71 2221.39 -30.79 2530.84 174.69C2737.14 311.68 2729.39 335.04 2507.59 244.78C2437.18 249.42 2085.16 272.61 1451.53 314.37L232.32 227.1C182.22 227.1 154.39 227.1 148.82 227.1C6.78 167.17 -28.78 134.42 42.13 128.85C148.5 120.49 268.08 51.08 480.93 65.81Z" id="bmtYvXPfs"></path><path d="M-15.05 209L2531.66 209L2531.66 327.18L-15.05 327.18L-15.05 209Z" id="c1XsysFh7j"></path><path d="M0 136.42L146.91 136.42L146.91 281.59L0 281.59L0 136.42Z" id="ahRfqZlbp"></path></defs><g><g><g><use xlink:href="#a1v1Lsr6zT" opacity="1" fill="url(#gradientc4mSoeChOw)"></use><g><use xlink:href="#a1v1Lsr6zT" opacity="1" fill-opacity="0" stroke="#000000" stroke-width="1" stroke-opacity="0"></use></g></g><g><use xlink:href="#bxiJg4U6H" opacity="1" fill="url(#gradientbzxKCQM9q)"></use><g><use xlink:href="#bxiJg4U6H" opacity="1" fill-opacity="0" stroke="#000000" stroke-width="1" stroke-opacity="0"></use></g></g><g><use xlink:href="#bmtYvXPfs" opacity="1" fill="#ffffff" fill-opacity="1"></use><g><use xlink:href="#bmtYvXPfs" opacity="1" fill-opacity="0" stroke="#000000" stroke-width="1" stroke-opacity="0"></use></g></g><g><use xlink:href="#c1XsysFh7j" opacity="1" fill="#ffffff" fill-opacity="1"></use></g><g><use xlink:href="#ahRfqZlbp" opacity="1" fill="#ffffff" fill-opacity="1"></use></g></g></g></svg>